<?xml version="1.0" encoding="UTF-8"?>
<svg xmlns="http://www.w3.org/2000/svg" xmlns:xlink="http://www.w3.org/1999/xlink" width="3600" height="3600" viewBox="0 0 3600 3600">
<rect x="-360" y="-360" width="4320" height="4320" fill="rgb(100%, 100%, 100%)" fill-opacity="1"/>
<path fill-rule="evenodd" fill="rgb(0%, 0%, 0%)" fill-opacity="1" d="M 1185.871094 2392.890625 C 1160.910156 2393.71875 1134.789062 2390.730469 1114.109375 2380.789062 C 1096.980469 2372.570312 1083.550781 2358.871094 1078.621094 2337.328125 C 1077.421875 2332.121094 1076.679688 2326.878906 1076.339844 2321.628906 C 1073.320312 2273.878906 1104.558594 2224.839844 1148.160156 2184.621094 C 1194.019531 2142.320312 1252.5 2110.679688 1300.738281 2099.640625 C 1309.5 2097.628906 1317.828125 2096.351562 1325.570312 2095.859375 C 1327.121094 2095.761719 1324.988281 2095.871094 1326.210938 2095.800781 C 1367.769531 2093.449219 1422.621094 2114.128906 1468.378906 2147.039062 C 1512.769531 2178.96875 1547.308594 2221.511719 1549.988281 2263.808594 C 1550.089844 2265.351562 1549.96875 2263.128906 1550.039062 2264.328125 C 1550.421875 2271.128906 1550.089844 2277.789062 1549.121094 2284.261719 C 1545.53125 2308.179688 1532.589844 2328.210938 1514.578125 2342.671875 C 1495.800781 2357.738281 1471.671875 2366.851562 1446.679688 2368.261719 L 1446.421875 2368.28125 C 1437.929688 2321.710938 1417.261719 2287.011719 1381.910156 2253.339844 C 1402.839844 2330.070312 1415.578125 2401.351562 1316.789062 2408.289062 C 1222.261719 2414.929688 1209.75 2353.519531 1215.558594 2268.148438 C 1190.191406 2316.058594 1180.789062 2344.480469 1185.871094 2392.890625 Z M 1607.960938 2260.171875 C 1604.078125 2198.859375 1559.410156 2141.101562 1502.25 2099.980469 C 1446.449219 2059.851562 1377.410156 2034.75 1323.03125 2037.828125 C 1321.21875 2037.941406 1322.898438 2037.820312 1321.929688 2037.890625 C 1311.070312 2038.570312 1299.621094 2040.320312 1287.78125 2043.03125 C 1230.488281 2056.140625 1161.859375 2092.960938 1108.828125 2141.878906 C 1053.539062 2192.878906 1014.101562 2257.820312 1018.371094 2325.261719 C 1018.898438 2333.578125 1020.101562 2341.929688 1022.011719 2350.289062 C 1023.871094 2358.398438 1026.339844 2365.921875 1029.359375 2372.898438 C 1006.878906 2378.238281 983.765625 2383.628906 960.1875 2389.050781 C 917.226562 2398.941406 882.050781 2406.871094 849.21875 2414.199219 C 833.589844 2417.648438 823.71875 2433.121094 827.167969 2448.75 C 830.621094 2464.378906 846.09375 2474.261719 861.722656 2470.800781 C 903.246094 2461.53125 942.132812 2452.800781 973.144531 2445.660156 C 1004.609375 2438.421875 1036.960938 2430.808594 1070.828125 2422.609375 C 1076.609375 2426.539062 1082.71875 2430.019531 1089.101562 2433.078125 C 1124.929688 2450.289062 1168.878906 2453.308594 1206.75 2449.75 C 1246.710938 2461.769531 1284.058594 2468.828125 1320.648438 2466.261719 C 1357.398438 2463.679688 1392.359375 2451.730469 1426.78125 2426.058594 C 1434.441406 2426.621094 1442.148438 2426.671875 1449.859375 2426.230469 C 1486.878906 2424.140625 1522.808594 2410.511719 1550.960938 2387.910156 C 1567.539062 2374.589844 1581.46875 2358.179688 1591.449219 2339.179688 C 1601.308594 2338.058594 1611.128906 2336.949219 1620.921875 2335.828125 C 1749.820312 2321.171875 1873.480469 2307.101562 2002.570312 2302.828125 C 2006.761719 2311.050781 2011.71875 2318.738281 2017.371094 2325.851562 C 2031.859375 2344.078125 2050.921875 2358.410156 2073.359375 2368.128906 C 2101.910156 2380.5 2135.769531 2385.171875 2172.238281 2380.519531 C 2215.859375 2396.398438 2253.820312 2403.398438 2290.238281 2399.679688 C 2325.160156 2396.109375 2357.320312 2382.96875 2389.980469 2358.71875 C 2413.289062 2365.128906 2434.800781 2366.621094 2454.351562 2364.101562 C 2481.828125 2360.570312 2504.898438 2349.230469 2523.371094 2332.46875 C 2542.210938 2315.378906 2555.691406 2297.171875 2564.511719 2278.320312 C 2599.53125 2277.941406 2634.300781 2277.699219 2668.949219 2277.621094 C 2710.28125 2277.53125 2751.648438 2277.679688 2793.308594 2278.101562 C 2797.960938 2278.140625 2802.359375 2277.078125 2806.269531 2275.160156 L 2806.269531 2223.070312 C 2802.488281 2221.21875 2798.25 2220.160156 2793.761719 2220.128906 C 2752.050781 2219.710938 2710.519531 2219.558594 2668.949219 2219.648438 C 2638.449219 2219.71875 2608.050781 2219.910156 2577.640625 2220.210938 C 2577.820312 2188.398438 2567.21875 2156.890625 2549.011719 2127.449219 C 2527.351562 2092.421875 2494.738281 2060.300781 2457.121094 2034.601562 C 2397.460938 1993.820312 2323.898438 1968.390625 2260.378906 1972.410156 C 2211.890625 1975.488281 2155.871094 1994.691406 2107.398438 2028.070312 C 2064.921875 2057.320312 2027.851562 2097.679688 2006.058594 2147.980469 C 1990.808594 2183.160156 1985.089844 2216.019531 1987.070312 2245.359375 C 1859.679688 2250.199219 1739.570312 2263.871094 1614.550781 2278.089844 L 1608.039062 2278.828125 C 1608.359375 2273.089844 1608.351562 2267.191406 1608.011719 2261.140625 C 1607.910156 2259.460938 1608.03125 2261.210938 1607.960938 2260.171875 Z M 2062.839844 2289.710938 C 2054.300781 2278.96875 2048.460938 2265.898438 2046.03125 2250.921875 C 2042.371094 2228.351562 2046.089844 2201.328125 2059.25 2170.941406 C 2076.328125 2131.53125 2106.050781 2099.441406 2140.359375 2075.808594 C 2180.011719 2048.511719 2225.261719 2032.839844 2264.019531 2030.378906 C 2314.480469 2027.179688 2374.558594 2048.511719 2424.390625 2082.558594 C 2455.699219 2103.960938 2482.460938 2130.070312 2499.679688 2157.910156 C 2515.390625 2183.308594 2522.941406 2210 2517.960938 2235.171875 C 2514.308594 2253.628906 2503.75 2272.039062 2484.5 2289.511719 C 2474.539062 2298.539062 2462.03125 2304.671875 2447.070312 2306.589844 C 2443.761719 2307.019531 2440.300781 2307.238281 2436.699219 2307.25 C 2420.609375 2260.601562 2409.25 2229.449219 2378.640625 2181.539062 C 2381.238281 2213.96875 2391.941406 2267.21875 2371.878906 2296.53125 C 2356.390625 2319.171875 2311.140625 2339.191406 2284.328125 2341.929688 C 2267.371094 2343.671875 2249.261719 2342 2229.289062 2337.300781 C 2202.308594 2274.289062 2206.070312 2232.769531 2212.339844 2191.25 C 2176.121094 2239.539062 2163.820312 2267.238281 2168.128906 2322.539062 C 2140.871094 2326.519531 2116.269531 2323.578125 2096.320312 2314.929688 C 2082.859375 2309.101562 2071.460938 2300.550781 2062.839844 2289.710938 "/>
<path fill-rule="evenodd" fill="rgb(98.826599%, 68.943787%, 25.488281%)" fill-opacity="1" d="M 1920.078125 1187.46875 C 1872.410156 1285.511719 1808.121094 1409.609375 1800 1517 C 1774.71875 1851.589844 2167.011719 2012.070312 2403.511719 1725.808594 C 2410.898438 1731.921875 2418.601562 1737.960938 2426.601562 1743.949219 C 2485.628906 1788.109375 2527.46875 1806.820312 2558.25 1797.398438 C 2655.421875 1767.640625 2665.578125 1330.128906 2624.691406 1271.679688 C 2576.828125 1203.261719 2344.421875 1147.699219 2262.820312 1158.878906 C 2224.421875 1164.140625 2189.460938 1183.238281 2154.261719 1229.28125 C 2067.289062 1211.160156 1990.960938 1196.621094 1920.078125 1187.46875 "/>
<path fill-rule="nonzero" fill="rgb(0%, 0%, 0%)" fill-opacity="1" d="M 1184.808594 1542.898438 C 1184.308594 1526.898438 1196.878906 1513.511719 1212.890625 1513.011719 C 1228.890625 1512.511719 1242.28125 1525.078125 1242.78125 1541.089844 C 1244.949219 1608.230469 1241.199219 1658.75 1225.03125 1706.320312 C 1208.789062 1754.101562 1180.589844 1797.25 1133.96875 1849.28125 C 1106.980469 1879.410156 1076.621094 1906.519531 1045.191406 1922.890625 C 1015.621094 1938.289062 984.847656 1944.628906 954.207031 1936.558594 C 931.261719 1930.519531 912.765625 1911.320312 897.703125 1884.210938 C 885.148438 1861.601562 874.464844 1832.988281 865.304688 1802.429688 C 854.507812 1766.421875 825.925781 1654.480469 808.347656 1562.820312 C 796.703125 1502.109375 789.964844 1448.578125 795.964844 1426.269531 C 810.121094 1373.628906 878.234375 1321.171875 957.339844 1281.148438 C 1050.578125 1233.96875 1162.46875 1202.101562 1215.371094 1208.871094 C 1233.46875 1211.179688 1250.429688 1217.429688 1268.550781 1228.851562 C 1280.800781 1236.578125 1293.550781 1246.679688 1307.671875 1259.640625 C 1468.28125 1187.570312 1594.179688 1154.910156 1722.039062 1148.808594 C 1849.570312 1142.730469 1977.351562 1163.171875 2142.851562 1197.28125 C 2158.929688 1178.648438 2175.230469 1164.578125 2192 1154.121094 C 2213.609375 1140.648438 2235.75 1133.300781 2258.949219 1130.121094 C 2307.230469 1123.511719 2401.878906 1137.710938 2485.261719 1163.699219 C 2557.039062 1186.078125 2622.601562 1218.140625 2648.449219 1255.078125 C 2653.160156 1261.820312 2657.160156 1270.738281 2660.449219 1281.480469 C 2676.210938 1332.949219 2680.988281 1449.019531 2671.328125 1558.488281 C 2661.300781 1672.109375 2634.648438 1781.710938 2586.71875 1815.238281 C 2580.449219 1819.628906 2573.769531 1822.949219 2566.660156 1825.128906 C 2544.46875 1831.929688 2519.910156 1829.261719 2491.878906 1817.589844 C 2468.011719 1807.671875 2440.761719 1790.738281 2409.210938 1767.140625 C 2355.488281 1726.929688 2314.300781 1684.089844 2286.25 1633.78125 C 2257.851562 1582.851562 2243.289062 1525.25 2243.289062 1456.289062 C 2243.289062 1440.21875 2256.320312 1427.191406 2272.390625 1427.191406 C 2288.460938 1427.191406 2301.488281 1440.21875 2301.488281 1456.289062 C 2301.488281 1515.140625 2313.511719 1563.558594 2336.941406 1605.589844 C 2360.730469 1648.261719 2396.648438 1685.328125 2443.988281 1720.761719 C 2471.46875 1741.320312 2494.648438 1755.828125 2514.160156 1763.941406 C 2529.488281 1770.320312 2541.25 1772.289062 2549.839844 1769.660156 C 2550.949219 1769.320312 2552.191406 1768.671875 2553.53125 1767.730469 C 2585.191406 1745.578125 2604.609375 1652.628906 2613.359375 1553.488281 C 2622.480469 1450.210938 2618.761719 1343.320312 2604.980469 1298.300781 C 2603.460938 1293.359375 2602.101562 1289.941406 2600.929688 1288.269531 C 2583.289062 1263.050781 2529.171875 1238.238281 2467.980469 1219.171875 C 2391.671875 1195.390625 2307.449219 1182.050781 2266.679688 1187.640625 C 2251.488281 1189.71875 2236.949219 1194.558594 2222.691406 1203.449219 C 2207.648438 1212.828125 2192.679688 1226.828125 2177.328125 1246.898438 C 2170.761719 1255.488281 2159.640625 1260.039062 2148.351562 1257.699219 C 1978.730469 1222.359375 1850.339844 1200.789062 1724.769531 1206.78125 C 1600.140625 1212.71875 1476.46875 1245.921875 1315.058594 1319.960938 C 1304.230469 1325.519531 1290.621094 1323.828125 1281.46875 1314.828125 C 1264.261719 1297.871094 1250.160156 1285.859375 1237.628906 1277.960938 C 1226.921875 1271.199219 1217.511719 1267.589844 1208.101562 1266.378906 C 1165.390625 1260.921875 1067.910156 1290.269531 983.480469 1332.980469 C 917.378906 1366.429688 861.445312 1406.589844 852.117188 1441.28125 C 848.671875 1454.089844 855.203125 1498.691406 865.40625 1551.910156 C 882.585938 1641.46875 910.472656 1750.71875 921 1785.839844 C 929.148438 1813.019531 938.273438 1837.789062 948.398438 1856.019531 C 956.023438 1869.75 963.097656 1878.859375 968.984375 1880.410156 C 984.0625 1884.378906 1000.96875 1880.339844 1018.359375 1871.28125 C 1043.238281 1858.320312 1068.160156 1835.878906 1090.78125 1810.640625 C 1131.890625 1764.761719 1156.449219 1727.578125 1170.019531 1687.679688 C 1183.648438 1647.558594 1186.75 1603.058594 1184.808594 1542.898438 "/>
<path fill-rule="evenodd" fill="rgb(0%, 0%, 0%)" fill-opacity="1" d="M 1794.960938 2172.308594 L 1759.199219 2082.238281 C 1715.101562 2061.480469 1604.558594 2006.960938 1611.738281 1952.871094 C 1624.578125 1856.128906 1935.570312 1846.890625 1942.28125 1941.601562 C 1945.578125 1988.308594 1850.640625 2051.738281 1810.859375 2078.261719 Z M 1681 1924.660156 C 1722.570312 1902.140625 1859.859375 1881.78125 1898.789062 1917.351562 C 1913.761719 1931.019531 1907.621094 1955.300781 1885.378906 1955.878906 C 1873.699219 1956.191406 1860.011719 1951.050781 1846.03125 1945.570312 C 1789.289062 1923.351562 1739.730469 1926.71875 1681 1924.660156 "/>
<path fill-rule="evenodd" fill="rgb(0%, 0%, 0%)" fill-opacity="1" d="M 1410.929688 1801.511719 L 1400.480469 1808.480469 L 1383.929688 1812.828125 L 1373.480469 1809.351562 L 1369.121094 1799.769531 L 1376.089844 1772.769531 L 1389.160156 1747.511719 L 1403.960938 1724.871094 L 1429.21875 1703.960938 L 1454.480469 1693.511719 L 1473.640625 1690.898438 L 1498.03125 1692.640625 L 1523.28125 1703.960938 L 1543.320312 1720.511719 L 1558.121094 1739.671875 L 1563.351562 1754.480469 L 1565.089844 1769.289062 L 1558.988281 1778.871094 L 1531.121094 1780.609375 L 1491.058594 1778 L 1457.960938 1784.960938 L 1430.960938 1792.800781 L 1410.929688 1801.511719 "/>
<path fill-rule="evenodd" fill="rgb(0%, 0%, 0%)" fill-opacity="1" d="M 1992.140625 1746.558594 C 1981.28125 1749.371094 1968.988281 1750.910156 1963.070312 1743.828125 C 1957.789062 1737.511719 1958.511719 1728.238281 1960.890625 1719.28125 C 1970.988281 1681.328125 2010.609375 1650.019531 2050.101562 1649.070312 C 2097.839844 1647.910156 2131.859375 1684.769531 2148.800781 1725.558594 C 2153.011719 1735.71875 2155.449219 1745.730469 2151.328125 1750.441406 C 2148.210938 1754 2140.859375 1754.160156 2132.691406 1752.988281 C 2105.109375 1749.03125 2082.351562 1739.199219 2052.101562 1738.011719 C 2028.511719 1737.089844 2013.929688 1740.898438 1992.140625 1746.558594 "/>
</svg>
